<?xml version="1.0" standalone="no"?>
<!DOCTYPE svg PUBLIC "-//W3C//DTD SVG 20010904//EN"
 "http://www.w3.org/TR/2001/REC-SVG-20010904/DTD/svg10.dtd">
<svg version="1.0" xmlns="http://www.w3.org/2000/svg"
 width="474.000000pt" height="474.000000pt" viewBox="0 0 474.000000 474.000000"
 preserveAspectRatio="xMidYMid meet">
<metadata>
Created by potrace 1.11, written by Peter Selinger 2001-2013
</metadata>
<g transform="translate(0.000000,474.000000) scale(0.100000,-0.100000)"
fill="#000000" stroke="none">
<path d="M2116 4380 c-438 -55 -864 -265 -1179 -582 -284 -286 -468 -630 -554
-1033 -26 -123 -27 -144 -27 -395 0 -251 1 -272 27 -393 68 -318 177 -562 363
-814 108 -146 202 -244 344 -360 l115 -94 6 89 c4 72 11 101 37 153 17 35 39
74 48 86 16 23 16 23 -21 23 l-38 0 6 59 c4 33 15 82 26 110 22 60 17 68 -49
73 l-45 3 0 70 0 70 38 3 c21 2 40 9 43 15 2 7 -13 64 -34 127 l-39 115 -89 5
c-86 5 -89 6 -89 29 0 20 -6 25 -33 27 -63 5 -62 -2 -62 309 0 260 1 283 18
298 17 15 60 17 413 17 217 0 399 -4 405 -8 31 -20 35 -55 33 -303 0 -139 -5
-263 -10 -276 -5 -13 -21 -29 -36 -36 -16 -7 -28 -18 -29 -24 -1 -7 -2 -17 -2
-23 -1 -6 -33 -10 -72 -10 -38 0 -70 -2 -70 -4 0 -1 5 -17 11 -35 l11 -31 319
0 c306 0 320 -1 339 -20 30 -30 27 -83 -6 -109 -15 -12 -32 -21 -39 -21 -18 0
-39 -186 -32 -279 13 -157 59 -244 155 -289 56 -27 60 -27 272 -27 247 0 292
8 350 64 30 29 40 48 50 96 11 53 10 79 -9 210 -12 83 -37 226 -56 318 -33
166 -34 168 -74 207 -22 22 -43 51 -47 65 -6 22 -10 24 -43 19 -34 -5 -59 6
-282 130 -135 75 -250 136 -256 136 -8 0 -63 -234 -63 -269 0 -8 52 -11 165
-11 l165 0 29 -27 c17 -17 45 -69 71 -133 23 -58 96 -235 162 -393 113 -272
119 -289 108 -322 -25 -76 -113 -100 -168 -47 -26 24 -117 233 -296 675 l-15
37 -264 0 c-251 0 -266 1 -290 20 -30 24 -47 75 -41 122 6 40 101 511 119 589
17 76 31 98 71 115 31 13 45 13 122 -2 48 -9 97 -23 109 -30 35 -22 56 -71 49
-115 l-6 -38 97 -55 c54 -30 181 -100 282 -155 l185 -102 28 29 29 28 -26 69
c-41 108 -53 130 -84 148 -40 23 -48 22 -54 -12 -8 -41 -46 -80 -84 -87 l-33
-6 0 127 0 127 28 -7 c30 -7 79 -49 87 -76 3 -9 19 -19 36 -23 48 -9 92 -62
124 -146 15 -41 31 -79 36 -84 4 -5 28 -1 55 8 61 21 124 21 124 1 0 -8 13
-21 29 -30 65 -33 101 -120 81 -193 -12 -46 -60 -107 -91 -117 -30 -10 -23
-35 10 -35 59 0 68 -18 212 -390 33 -85 64 -159 69 -164 5 -5 37 -13 71 -18
149 -20 288 -134 266 -217 -2 -10 0 -26 5 -36 9 -15 16 -11 60 31 410 399 640
1007 598 1576 -22 290 -79 503 -200 753 -239 495 -678 876 -1202 1044 -203 65
-320 82 -573 86 -126 2 -261 0 -299 -5z m-117 -416 c216 -59 316 -56 383 11
23 24 38 31 48 25 11 -7 12 -15 2 -47 -15 -46 -38 -75 -83 -102 -58 -35 -128
-27 -266 30 -28 11 -34 11 -52 -5 -27 -25 -137 -243 -127 -253 15 -16 141 -9
168 9 23 15 28 15 38 3 24 -29 -43 -95 -111 -110 -22 -5 -63 5 -120 29 -11 5
-25 -11 -55 -66 -48 -89 -140 -190 -200 -219 -36 -17 -58 -20 -106 -17 -53 4
-65 9 -89 36 -37 41 -45 75 -30 131 16 61 57 111 114 140 75 37 118 15 95 -49
-18 -54 -101 -80 -117 -38 -8 21 -10 20 -30 -19 -38 -76 -22 -145 39 -158 45
-10 95 20 140 82 53 75 133 231 126 249 -3 8 -27 24 -53 36 -61 29 -59 26 -45
40 10 10 51 1 113 -26 12 -5 26 9 57 61 44 74 101 136 146 160 l30 15 -60 26
c-45 20 -76 26 -132 26 -71 1 -75 0 -103 -32 -31 -34 -38 -79 -17 -100 19 -19
40 -15 33 8 -7 23 18 75 40 84 47 18 83 -12 69 -57 -18 -59 -78 -94 -131 -76
-61 20 -75 88 -31 152 23 32 50 48 98 57 45 9 70 5 219 -36z m965 -150 c27
-10 18 -61 -34 -187 -27 -67 -50 -127 -50 -134 0 -20 27 -16 51 8 26 26 36 18
21 -16 -24 -53 -113 -83 -146 -50 -14 14 -18 14 -45 0 -43 -21 -68 -19 -98 11
-22 22 -24 31 -19 67 19 115 145 225 214 188 17 -9 21 -5 32 30 11 34 11 42 0
49 -22 14 -3 40 29 40 16 0 36 -3 45 -6z m-619 -129 c32 -32 33 -81 1 -143
-73 -143 -236 -170 -236 -39 1 134 160 258 235 182z m278 -6 c25 -30 21 -77
-10 -139 -36 -69 -87 -111 -146 -117 -60 -7 -87 18 -87 82 0 74 62 166 130
194 36 15 92 5 113 -20z m357 -319 c0 -20 -7 -20 -600 -20 -593 0 -600 0 -600
20 0 20 7 20 600 20 593 0 600 0 600 -20z m-1135 -85 c35 -34 35 -96 0 -130
-20 -21 -34 -25 -80 -25 l-55 0 0 90 0 90 55 0 c46 0 60 -4 80 -25z m178 5
c-4 -14 -14 -20 -34 -20 -37 0 -38 -18 -1 -22 19 -2 28 -9 30 -25 3 -20 -1
-23 -27 -23 -21 0 -31 -5 -31 -15 0 -10 11 -15 35 -15 28 0 35 -4 35 -20 0
-18 -7 -20 -60 -20 l-60 0 0 90 0 90 59 0 c54 0 59 -2 54 -20z m89 -47 l3 -68
33 -3 c24 -2 32 -8 32 -23 0 -17 -7 -19 -60 -19 l-60 0 0 90 c0 89 0 90 25 90
23 0 24 -3 27 -67z m178 47 c0 -11 -4 -20 -10 -20 -5 0 -10 -22 -10 -50 0 -27
5 -50 10 -50 6 0 10 -9 10 -20 0 -17 -7 -20 -45 -20 -38 0 -45 3 -45 20 0 11
5 20 10 20 6 0 10 23 10 50 0 28 -4 50 -10 50 -5 0 -10 9 -10 20 0 17 7 20 45
20 38 0 45 -3 45 -20z m76 -25 c9 -25 20 -45 23 -45 4 0 14 19 22 43 13 33 21
43 42 45 15 2 27 2 27 0 0 -12 -80 -183 -85 -181 -3 1 -9 3 -13 5 -6 2 -49 92
-79 166 -3 8 4 12 20 12 21 0 28 -8 43 -45z m254 25 c0 -16 -7 -20 -35 -20
-44 0 -46 -18 -2 -22 24 -2 32 -8 32 -23 0 -15 -8 -21 -33 -23 -42 -4 -37 -26
6 -30 24 -2 32 -8 32 -23 0 -17 -7 -19 -60 -19 l-60 0 0 90 0 90 60 0 c53 0
60 -2 60 -20z m179 -12 c13 -23 13 -32 3 -62 -11 -30 -11 -39 4 -61 16 -25 16
-25 -15 -25 -24 0 -34 6 -43 25 -6 14 -17 25 -25 25 -7 0 -13 -11 -13 -25 0
-20 -5 -25 -25 -25 -25 0 -25 1 -25 90 l0 91 62 -3 c56 -3 64 -6 77 -30z m93
7 c6 -14 14 -25 18 -25 4 0 12 11 18 25 8 17 20 25 37 25 32 0 31 -5 -5 -60
-20 -30 -30 -58 -30 -82 0 -34 -3 -38 -25 -38 -23 0 -25 4 -25 43 0 23 -6 51
-13 62 -8 11 -22 32 -32 48 l-17 27 31 0 c24 0 34 -6 43 -25z m-669 -326 c56
-15 132 -93 147 -149 24 -91 -11 -191 -88 -244 -57 -41 -158 -49 -218 -18
-168 86 -168 320 0 398 56 26 100 30 159 13z"/>
<path d="M2818 3662 c-39 -16 -107 -143 -95 -177 8 -20 40 -19 60 3 22 24 78
162 71 173 -6 10 -12 10 -36 1z"/>
<path d="M2247 3641 c-27 -33 -67 -129 -67 -161 0 -27 22 -25 48 3 44 47 83
174 56 184 -6 2 -23 -10 -37 -26z"/>
<path d="M2506 3628 c-53 -90 -72 -168 -43 -168 32 0 97 116 97 174 0 50 -23
47 -54 -6z"/>
<path d="M1760 3210 c0 -43 3 -50 20 -50 11 0 27 11 36 25 15 23 15 27 0 50
-9 14 -25 25 -36 25 -17 0 -20 -7 -20 -50z"/>
<path d="M2710 3241 c0 -16 6 -21 26 -21 33 0 30 33 -4 38 -17 3 -22 -2 -22
-17z"/>
<path d="M1250 1703 c0 -4 16 -57 36 -119 l36 -113 24 15 c18 12 44 15 113 12
l89 -5 -20 28 c-17 22 -19 36 -14 72 5 31 2 57 -8 81 l-15 36 -120 0 c-67 0
-121 -3 -121 -7z"/>
<path d="M1545 956 c-38 -17 -90 -72 -104 -109 -47 -123 46 -257 177 -257 113
0 192 78 192 190 0 106 -82 190 -184 190 -28 -1 -64 -7 -81 -14z m125 -81 c65
-34 80 -107 33 -163 -80 -94 -231 -1 -179 109 29 62 89 84 146 54z"/>
<path d="M3270 897 c-50 -33 -75 -82 -75 -148 0 -101 73 -174 175 -174 169 0
243 201 116 313 -34 30 -42 32 -110 32 -59 0 -79 -4 -106 -23z m171 -76 c48
-49 38 -125 -21 -156 -38 -19 -65 -19 -101 2 -36 21 -53 63 -45 107 14 76 111
103 167 47z"/>
<path d="M2035 807 c10 -39 -13 -149 -45 -214 -20 -40 -52 -81 -91 -118 -34
-31 -59 -58 -57 -61 13 -13 274 -55 393 -64 240 -17 520 17 753 91 53 17 98
33 100 34 2 2 -10 22 -27 45 -37 51 -66 127 -76 198 l-7 52 -124 0 -124 0 0
-43 c0 -23 -7 -53 -16 -65 -17 -25 -56 -29 -74 -7 -10 12 -42 15 -166 15 -125
0 -155 3 -168 16 -42 41 -9 53 157 56 232 5 183 22 -80 29 -183 4 -237 9 -275
23 -27 10 -50 22 -54 27 -11 18 -24 8 -19 -14z"/>
</g>
</svg>
